<svg width="16" height="16" fill="none" xmlns="http://www.w3.org/2000/svg"><path fill-rule="evenodd" clip-rule="evenodd" d="M0 8.003c0-1.8 2.857-6 8-6s8 4.2 8 6c0 1.8-2.857 6-8 6s-8-4.2-8-6zm2 0c0 .362.546 1.377 1.44 2.217 1.193 1.12 2.75 1.783 4.56 1.783 1.81 0 3.367-.663 4.56-1.783.894-.84 1.44-1.855 1.44-2.217 0-.362-.546-1.377-1.44-2.217C11.366 4.666 9.81 4.003 8 4.003c-1.81 0-3.367.663-4.56 1.783C2.547 6.626 2 7.64 2 8.003zm8.3 0a2.3 2.3 0 11-4.6 0 2.3 2.3 0 014.6 0z" fill="#222426"/></svg>